<svg width="351" height="233" viewBox="0 0 351 233" fill="none" xmlns="http://www.w3.org/2000/svg">
<path d="M23.7371 174.839L61.6778 174.727L99.6186 174.685L175.5 174.606L251.382 174.685L289.322 174.727L327.263 174.839L289.322 174.955L251.382 174.992L175.5 175.072L99.6186 174.992L61.6778 174.95L23.7371 174.839Z" fill="#263238"/>
<path d="M244.568 86.881H106.433V107.73H244.568V86.881Z" fill="white"/>
<path d="M244.801 107.958H106.198V86.648H244.801V107.958ZM106.666 107.492H244.333V87.114H106.666V107.492Z" fill="#DBDBDB"/>
<path d="M118.629 92.529C118.897 93.3022 119.081 94.1022 119.176 94.9149C119.379 96.5006 119.379 98.1056 119.176 99.6914C119.079 100.504 118.894 101.304 118.624 102.077C118.352 101.305 118.167 100.505 118.072 99.6914C117.872 98.1054 117.872 96.5008 118.072 94.9149C118.172 94.1022 118.359 93.3025 118.629 92.529Z" fill="#37474F"/>
<path d="M123.421 97.3008C122.646 97.5757 121.842 97.7633 121.025 97.86C120.23 97.9607 119.43 98.0105 118.629 98.0091C117.827 98.013 117.027 97.9632 116.232 97.86C115.414 97.7658 114.609 97.5814 113.832 97.3101C114.61 97.0432 115.415 96.8589 116.232 96.7602C117.027 96.6594 117.827 96.6096 118.629 96.6111C119.43 96.6136 120.23 96.665 121.025 96.7649C121.841 96.8562 122.644 97.0359 123.421 97.3008Z" fill="#37474F"/>
<path d="M122.017 93.927C121.658 94.6629 121.22 95.3582 120.711 96.0007C120.222 96.6327 119.692 97.232 119.125 97.7948C118.559 98.3606 117.957 98.8898 117.323 99.3792C116.676 99.8858 115.976 100.322 115.236 100.679C115.595 99.9419 116.032 99.2451 116.541 98.6009C117.033 97.9697 117.564 97.3705 118.133 96.8068C118.7 96.2437 119.302 95.7162 119.934 95.2271C120.58 94.7215 121.278 94.2856 122.017 93.927Z" fill="#37474F"/>
<path d="M122.017 100.679C121.278 100.321 120.58 99.8848 119.934 99.3792C119.3 98.8898 118.699 98.3606 118.133 97.7948C117.56 97.2311 117.025 96.6302 116.532 95.996C116.023 95.3519 115.585 94.6551 115.226 93.9176C115.968 94.2735 116.668 94.7095 117.314 95.2178C118.584 96.1949 119.722 97.3304 120.702 98.5963C121.215 99.2413 121.655 99.9397 122.017 100.679Z" fill="#37474F"/>
<path d="M137.321 92.529C137.589 93.3022 137.773 94.1022 137.868 94.9149C137.968 95.7063 138.02 96.5031 138.023 97.3008C138.024 98.1 137.974 98.8985 137.873 99.6914C137.773 100.504 137.588 101.303 137.321 102.077C137.049 101.305 136.863 100.505 136.768 99.6914C136.665 98.8987 136.615 98.1001 136.619 97.3008C136.617 96.5031 136.667 95.7062 136.768 94.9149C136.865 94.102 137.05 93.302 137.321 92.529Z" fill="#37474F"/>
<path d="M142.113 97.3008C141.337 97.572 140.533 97.7565 139.717 97.8507C138.922 97.9512 138.122 98.0011 137.32 97.9998C136.518 98.0035 135.716 97.9537 134.92 97.8507C134.103 97.756 133.299 97.5716 132.523 97.3008C133.301 97.0344 134.104 96.8501 134.92 96.7509C135.716 96.6502 136.518 96.6004 137.32 96.6018C138.122 96.6044 138.922 96.6558 139.717 96.7556C140.533 96.8504 141.336 97.0332 142.113 97.3008Z" fill="#37474F"/>
<path d="M140.709 93.927C140.35 94.6629 139.912 95.3582 139.403 96.0007C138.914 96.6327 138.384 97.232 137.817 97.7948C137.251 98.3606 136.649 98.8898 136.015 99.3792C135.368 99.8858 134.668 100.322 133.927 100.679C134.287 99.9419 134.724 99.2451 135.233 98.6009C135.725 97.9697 136.256 97.3705 136.824 96.8068C137.39 96.2415 137.991 95.7137 138.626 95.2271C139.271 94.7205 139.97 94.2846 140.709 93.927Z" fill="#37474F"/>
<path d="M140.709 100.679C139.97 100.322 139.272 99.8858 138.626 99.3792C137.99 98.8922 137.388 98.3629 136.824 97.7948C136.261 97.2302 135.736 96.6293 135.252 95.996C134.743 95.3519 134.305 94.6551 133.946 93.9176C134.688 94.2735 135.388 94.7095 136.034 95.2178C137.304 96.1949 138.442 97.3304 139.422 98.5963C139.925 99.2426 140.356 99.941 140.709 100.679Z" fill="#37474F"/>
<path d="M156.008 92.529C156.28 93.3014 156.465 94.1016 156.56 94.9149C156.661 95.7062 156.711 96.5031 156.71 97.3008C156.713 98.1001 156.663 98.8987 156.56 99.6914C156.465 100.505 156.28 101.305 156.008 102.077C155.739 101.304 155.556 100.504 155.46 99.6914C155.357 98.8986 155.306 98.1001 155.306 97.3008C155.308 96.5031 155.36 95.7063 155.46 94.9149C155.555 94.1022 155.739 93.3022 156.008 92.529Z" fill="#37474F"/>
<path d="M160.805 97.3008C160.029 97.5716 159.225 97.756 158.409 97.8507C157.612 97.9514 156.81 98.0012 156.008 97.9998C155.206 98.0034 154.406 97.9536 153.612 97.8507C152.795 97.7565 151.991 97.572 151.215 97.3008C151.992 97.0339 152.796 96.8496 153.612 96.7509C154.406 96.6503 155.207 96.6005 156.008 96.6018C156.81 96.6043 157.612 96.6556 158.409 96.7556C159.225 96.8509 160.028 97.0337 160.805 97.3008Z" fill="#37474F"/>
<path d="M159.401 93.927C159.042 94.6629 158.604 95.3582 158.095 96.0007C157.606 96.6327 157.076 97.232 156.508 97.7948C155.942 98.3606 155.341 98.8898 154.707 99.3792C154.06 99.8858 153.36 100.322 152.619 100.679C152.977 99.941 153.415 99.244 153.925 98.6009C154.416 97.9709 154.946 97.3717 155.512 96.8068C156.079 96.2426 156.683 95.7149 157.318 95.2271C157.963 94.7205 158.662 94.2846 159.401 93.927Z" fill="#37474F"/>
<path d="M159.401 100.679C158.662 100.322 157.963 99.8858 157.318 99.3792C156.682 98.8911 156.078 98.3618 155.512 97.7948C154.945 97.2296 154.415 96.6287 153.925 95.996C153.415 95.3529 152.977 94.656 152.619 93.9176C153.361 94.2735 154.061 94.7095 154.707 95.2178C155.977 96.1949 157.115 97.3304 158.095 98.5963C158.604 99.2417 159.042 99.9401 159.401 100.679Z" fill="#37474F"/>
<path d="M174.7 92.529C174.97 93.302 175.155 94.102 175.252 94.9149C175.452 96.5008 175.452 98.1054 175.252 99.6914C175.157 100.505 174.972 101.305 174.7 102.077C174.43 101.304 174.245 100.504 174.147 99.6914C174.046 98.8985 173.996 98.1 173.998 97.3008C174 96.5031 174.052 95.7063 174.152 94.9149C174.247 94.1022 174.431 93.3022 174.7 92.529Z" fill="#37474F"/>
<path d="M179.497 97.3008C178.721 97.5716 177.917 97.756 177.1 97.8507C176.304 97.9514 175.502 98.0012 174.7 97.9998C173.898 98.0034 173.098 97.9536 172.303 97.8507C171.487 97.7565 170.683 97.572 169.907 97.3008C170.684 97.0339 171.487 96.8496 172.303 96.7509C173.098 96.6503 173.898 96.6005 174.7 96.6018C175.502 96.6043 176.304 96.6556 177.1 96.7556C177.916 96.8509 178.72 97.0337 179.497 97.3008Z" fill="#37474F"/>
<path d="M178.093 93.927C177.733 94.6629 177.296 95.3582 176.787 96.0007C176.297 96.6327 175.765 97.2321 175.196 97.7948C174.632 98.3629 174.03 98.8922 173.394 99.3792C172.749 99.8858 172.05 100.322 171.311 100.679C171.667 99.94 172.105 99.2428 172.617 98.6009C173.107 97.9698 173.637 97.3705 174.204 96.8068C174.771 96.2437 175.373 95.7162 176.005 95.2271C176.653 94.7214 177.353 94.2856 178.093 93.927Z" fill="#37474F"/>
<path d="M178.093 100.679C177.353 100.321 176.653 99.8848 176.005 99.3792C175.371 98.8898 174.77 98.3606 174.204 97.7948C173.636 97.2338 173.106 96.636 172.617 96.0053C172.105 95.3635 171.667 94.6663 171.311 93.927C172.051 94.2828 172.75 94.7188 173.394 95.2271C174.03 95.7124 174.632 96.2402 175.196 96.8068C175.764 97.3722 176.295 97.973 176.787 98.6056C177.296 99.2481 177.733 99.9434 178.093 100.679Z" fill="#37474F"/>
<path d="M193.392 92.529C193.66 93.3027 193.845 94.1024 193.944 94.9149C194.144 96.5008 194.144 98.1054 193.944 99.6914C193.849 100.505 193.664 101.305 193.392 102.077C193.122 101.304 192.937 100.504 192.839 99.6914C192.637 98.1056 192.637 96.5006 192.839 94.9149C192.936 94.102 193.121 93.302 193.392 92.529Z" fill="#37474F"/>
<path d="M198.189 97.3008C197.411 97.5721 196.606 97.7565 195.788 97.8507C194.993 97.9515 194.193 98.0014 193.392 97.9998C192.59 98.0035 191.79 97.9537 190.995 97.8507C190.18 97.7567 189.378 97.5722 188.604 97.3008C189.381 97.0334 190.184 96.8491 191 96.7509C191.795 96.6502 192.595 96.6004 193.396 96.6018C194.197 96.6041 194.998 96.6555 195.792 96.7556C196.609 96.8507 197.412 97.0335 198.189 97.3008Z" fill="#37474F"/>
<path d="M196.785 93.927C196.426 94.664 195.986 95.3594 195.474 96.0007C194.491 97.2636 193.353 98.3987 192.086 99.3792C191.441 99.8858 190.742 100.322 190.003 100.679C190.359 99.94 190.797 99.2428 191.309 98.6009C191.799 97.9698 192.329 97.3705 192.895 96.8068C193.463 96.2437 194.064 95.7162 194.697 95.2271C195.344 94.7204 196.044 94.2845 196.785 93.927Z" fill="#37474F"/>
<path d="M196.785 100.679C196.044 100.322 195.344 99.8858 194.697 99.3792C194.063 98.8898 193.461 98.3606 192.895 97.7948C192.328 97.2338 191.798 96.636 191.309 96.0053C190.797 95.3635 190.359 94.6663 190.003 93.927C190.743 94.2828 191.442 94.7188 192.086 95.2271C192.722 95.7124 193.324 96.2402 193.888 96.8068C194.456 97.3711 194.986 97.9719 195.474 98.6056C195.986 99.2468 196.426 99.9422 196.785 100.679Z" fill="#37474F"/>
<path d="M212.083 92.529C212.352 93.3022 212.536 94.1022 212.631 94.9149C212.834 96.5006 212.834 98.1056 212.631 99.6914C212.534 100.504 212.348 101.304 212.079 102.077C211.807 101.305 211.622 100.505 211.526 99.6914C211.327 98.1054 211.327 96.5008 211.526 94.9149C211.627 94.1022 211.814 93.3025 212.083 92.529Z" fill="#37474F"/>
<path d="M216.876 97.3008C216.1 97.5726 215.297 97.757 214.48 97.8507C213.685 97.9514 212.885 98.0012 212.084 97.9998C211.282 98.0037 210.482 97.9539 209.687 97.8507C208.869 97.7565 208.064 97.5721 207.287 97.3008C208.065 97.0339 208.87 96.8496 209.687 96.7509C210.482 96.6501 211.283 96.6002 212.084 96.6018C212.885 96.6043 213.685 96.6556 214.48 96.7556C215.296 96.8499 216.1 97.0327 216.876 97.3008Z" fill="#37474F"/>
<path d="M215.472 93.927C215.116 94.6648 214.678 95.3604 214.166 96.0007C213.679 96.6338 213.149 97.2332 212.579 97.7948C212.013 98.3606 211.412 98.8898 210.778 99.3792C210.132 99.8848 209.434 100.321 208.695 100.679C209.051 99.9411 209.487 99.2441 209.996 98.6009C210.981 97.3393 212.121 96.2058 213.389 95.2271C214.035 94.7215 214.733 94.2856 215.472 93.927Z" fill="#37474F"/>
<path d="M215.472 100.679C214.733 100.321 214.035 99.8848 213.389 99.3792C212.124 98.3971 210.984 97.264 209.996 96.0053C209.487 95.3622 209.051 94.6652 208.695 93.927C209.435 94.2839 210.133 94.7199 210.778 95.2271C211.412 95.7148 212.013 96.2425 212.579 96.8068C213.147 97.3711 213.677 97.9719 214.166 98.6056C214.678 99.2458 215.116 99.9414 215.472 100.679Z" fill="#37474F"/>
<path d="M199.12 93.0882V118.467H191.918V93.0882C191.918 83.4373 184.556 75.5899 175.5 75.5899C166.444 75.5899 159.083 83.4373 159.083 93.0882V118.467H151.88V93.0882C151.88 79.2666 162.476 68.036 175.5 68.036C188.525 68.036 199.12 79.2666 199.12 93.0882Z" fill="#455A64"/>
<path d="M151.88 99.6867L159.083 99.9756V118.467H151.88V99.6867Z" fill="#263238"/>
<path d="M199.12 101.602V118.467H191.917V101.308L199.12 101.602Z" fill="#263238"/>
<path d="M208.354 104.016H142.651V163.37H208.354V104.016Z" fill="#FFC727"/>
<path opacity="0.1" d="M208.349 104.016H175.5V163.37H208.349V104.016Z" fill="black"/>
<path d="M178.28 135.867L181.027 148.854H169.355L172.107 135.867C171.031 135.199 170.203 134.201 169.747 133.023C169.292 131.844 169.234 130.551 169.583 129.337C169.931 128.123 170.668 127.055 171.68 126.295C172.692 125.535 173.926 125.124 175.194 125.124C176.461 125.124 177.695 125.535 178.707 126.295C179.719 127.055 180.456 128.123 180.804 129.337C181.153 130.551 181.095 131.844 180.64 133.023C180.184 134.201 179.356 135.199 178.28 135.867Z" fill="#263238"/>
<path d="M156.415 135.844C156.415 135.844 152.98 163.226 147.336 169.396C140.559 176.786 135.636 175.705 132.903 179.517C130.17 175.701 125.251 176.786 118.465 169.391C112.821 163.226 109.39 135.839 109.39 135.839C124.263 128.653 132.912 120.596 132.912 120.596C133.169 120.848 141.771 128.77 156.415 135.844Z" fill="#07A53D"/>
<path d="M132.912 120.601V179.513C130.179 175.696 125.26 176.782 118.474 169.386C112.83 163.221 109.4 135.834 109.4 135.834C124.264 128.653 132.912 120.596 132.912 120.596V120.601Z" fill="#DBDBDB"/>
<path d="M152.769 138.052C152.769 138.052 149.868 161.18 145.099 166.39C139.366 172.644 135.21 171.726 132.898 174.946C130.586 171.726 126.43 172.644 120.702 166.39C115.933 161.18 113.036 138.052 113.036 138.052C125.602 131.994 132.898 125.168 132.898 125.168C132.898 125.168 140.204 131.976 152.769 138.052Z" fill="#DBDBDB"/>
<path d="M113.041 138.052C113.041 138.052 115.942 161.18 120.711 166.39C126.435 172.639 130.572 171.726 132.912 174.936V125.177C132.683 125.382 125.424 132.069 113.041 138.052Z" fill="#C7C7C7"/>
<path d="M139.415 156.542C143.012 152.961 143.012 147.154 139.415 143.572C135.818 139.991 129.987 139.991 126.39 143.572C122.793 147.154 122.793 152.961 126.39 156.542C129.987 160.124 135.818 160.123 139.415 156.542Z" fill="#FFC727"/>
<path d="M131.854 156.017L127.75 151.767L129.271 150.308L131.531 152.652L136.408 145.206L138.177 146.352L131.854 156.017Z" fill="white"/>
<path d="M101.129 181.717L102.221 176.147L167.574 188.855C168.171 188.971 168.697 189.318 169.036 189.82C169.376 190.323 169.501 190.939 169.385 191.533L169.171 192.622C169.055 193.216 168.706 193.74 168.201 194.078C167.697 194.417 167.078 194.541 166.481 194.425L101.129 181.717Z" fill="#FFC727"/>
<path opacity="0.1" d="M102.216 176.141L101.123 181.716L109.014 183.251L110.108 177.675L102.216 176.141Z" fill="black"/>
<path d="M77.2201 169.037L75.2966 178.944C74.9712 180.605 74.9775 182.313 75.3151 183.972C75.6528 185.63 76.3152 187.206 77.2645 188.61C78.2139 190.013 79.4316 191.217 80.848 192.152C82.2645 193.087 83.8521 193.735 85.5201 194.059C87.1881 194.383 88.9038 194.376 90.5694 194.04C92.2349 193.704 93.8176 193.044 95.2272 192.099C96.6368 191.154 97.8455 189.941 98.7845 188.531C99.7235 187.121 100.374 185.54 100.7 183.879L102.637 173.995C103.297 170.639 102.592 167.159 100.675 164.321C98.7591 161.483 95.7889 159.519 92.4184 158.862C89.0479 158.204 85.5531 158.907 82.7029 160.815C79.8526 162.723 77.8804 165.681 77.2201 169.037ZM98.5562 171.511C97.9806 174.452 95.4019 176.572 92.2148 177.08C94.976 178.753 96.5672 181.675 95.9869 184.615C95.2194 188.548 90.8623 191.018 86.2618 190.123C81.6614 189.229 78.5679 185.31 79.3401 181.381C79.9158 178.441 82.4944 176.32 85.6862 175.789C82.9203 174.126 81.3338 171.194 81.9094 168.254C82.6816 164.316 87.0294 161.856 91.6251 162.75C96.2209 163.645 99.3471 167.578 98.5749 171.511H98.5562Z" fill="#FFC727"/>
<path d="M102.707 173.63L100.629 184.227C100.517 184.798 100.891 185.351 101.464 185.462L101.97 185.561C102.543 185.672 103.098 185.3 103.21 184.729L105.289 174.132C105.401 173.561 105.027 173.008 104.453 172.896L103.948 172.798C103.375 172.687 102.819 173.059 102.707 173.63Z" fill="#FFC727"/>
<path d="M105.289 174.133L103.211 184.73C103.099 185.301 103.473 185.854 104.046 185.965L104.551 186.064C105.124 186.175 105.68 185.803 105.792 185.232L107.87 174.635C107.982 174.064 107.608 173.511 107.035 173.399L106.53 173.301C105.956 173.19 105.401 173.562 105.289 174.133Z" fill="#FFC727"/>
<path d="M151.955 183.427L153.902 183.804L155.002 178.175L156.668 178.497L156.092 181.432L158.034 181.81L158.61 178.874L160.084 179.158L159.171 183.8L161.118 184.182L162.031 179.54L164.118 179.946L162.906 186.144L164.853 186.521L166.07 180.323L168.045 180.71L166.491 188.632L149.1 185.249L150.649 177.327L153.055 177.793L151.955 183.427Z" fill="#FFC727"/>
</svg>
