<svg width="46" height="44" viewBox="0 0 46 44" fill="none" xmlns="http://www.w3.org/2000/svg">
<ellipse cx="23" cy="22" rx="23" ry="22" fill="#07A53D"/>
<path d="M45.5 22C45.5 33.8534 35.4476 43.5 23 43.5C10.5524 43.5 0.5 33.8534 0.5 22C0.5 10.1466 10.5524 0.5 23 0.5C35.4476 0.5 45.5 10.1466 45.5 22Z" stroke="black" stroke-opacity="0.1"/>
<g clip-path="url(#clip0_29_208)">
<path d="M15 23C16.1 23 17 22.1 17 21C17 19.9 16.1 19 15 19C13.9 19 13 19.9 13 21C13 22.1 13.9 23 15 23ZM16.13 24.1C15.76 24.04 15.39 24 15 24C14.01 24 13.07 24.21 12.22 24.58C11.48 24.9 11 25.62 11 26.43V28H15.5V26.39C15.5 25.56 15.73 24.78 16.13 24.1ZM31 23C32.1 23 33 22.1 33 21C33 19.9 32.1 19 31 19C29.9 19 29 19.9 29 21C29 22.1 29.9 23 31 23ZM35 26.43C35 25.62 34.52 24.9 33.78 24.58C32.93 24.21 31.99 24 31 24C30.61 24 30.24 24.04 29.87 24.1C30.27 24.78 30.5 25.56 30.5 26.39V28H35V26.43ZM27.24 23.65C26.07 23.13 24.63 22.75 23 22.75C21.37 22.75 19.93 23.14 18.76 23.65C17.68 24.13 17 25.21 17 26.39V28H29V26.39C29 25.21 28.32 24.13 27.24 23.65ZM19.07 26C19.16 25.77 19.2 25.61 19.98 25.31C20.95 24.93 21.97 24.75 23 24.75C24.03 24.75 25.05 24.93 26.02 25.31C26.79 25.61 26.83 25.77 26.93 26H19.07ZM23 18C23.55 18 24 18.45 24 19C24 19.55 23.55 20 23 20C22.45 20 22 19.55 22 19C22 18.45 22.45 18 23 18ZM23 16C21.34 16 20 17.34 20 19C20 20.66 21.34 22 23 22C24.66 22 26 20.66 26 19C26 17.34 24.66 16 23 16Z" fill="#FFC727"/>
</g>
<defs>
<clipPath id="clip0_29_208">
<rect width="24" height="24" fill="white" transform="translate(11 10)"/>
</clipPath>
</defs>
</svg>
