<svg width="30" height="30" viewBox="0 0 30 30" fill="none" xmlns="http://www.w3.org/2000/svg">
<g clip-path="url(#clip0_50_450)">
<path d="M17.65 5L19.9375 7.5H25V22.5H5V7.5H10.0625L12.35 5H17.65ZM18.75 2.5H11.25L8.9625 5H5C3.625 5 2.5 6.125 2.5 7.5V22.5C2.5 23.875 3.625 25 5 25H25C26.375 25 27.5 23.875 27.5 22.5V7.5C27.5 6.125 26.375 5 25 5H21.0375L18.75 2.5ZM15 11.25C17.0625 11.25 18.75 12.9375 18.75 15C18.75 17.0625 17.0625 18.75 15 18.75C12.9375 18.75 11.25 17.0625 11.25 15C11.25 12.9375 12.9375 11.25 15 11.25ZM15 8.75C11.55 8.75 8.75 11.55 8.75 15C8.75 18.45 11.55 21.25 15 21.25C18.45 21.25 21.25 18.45 21.25 15C21.25 11.55 18.45 8.75 15 8.75Z" fill="black" fill-opacity="0.2"/>
</g>
<defs>
<clipPath id="clip0_50_450">
<rect width="30" height="30" fill="white"/>
</clipPath>
</defs>
</svg>
