<svg width="46" height="44" viewBox="0 0 46 44" fill="none" xmlns="http://www.w3.org/2000/svg">
<ellipse cx="23" cy="22" rx="23" ry="22" fill="#07A53D"/>
<path d="M45.5 22C45.5 33.8534 35.4476 43.5 23 43.5C10.5524 43.5 0.5 33.8534 0.5 22C0.5 10.1466 10.5524 0.5 23 0.5C35.4476 0.5 45.5 10.1466 45.5 22Z" stroke="black" stroke-opacity="0.1"/>
<path d="M18.4062 30.4656H28.4844V14.2281H21.5562C21.2281 13.3094 20.4875 12.5875 19.5594 12.2312V10H14.1219V20.4062C14.1312 20.9125 14.525 21.3062 15.0219 21.3062V19.3094C15.0219 19.1031 15.2 18.9531 15.3781 18.9531C15.575 18.9531 15.7344 19.1313 15.7344 19.3094V22.225C15.7344 22.3375 15.7531 22.4594 15.8 22.5531C15.8938 22.825 16.1562 23.0312 16.4469 23.0969C16.4937 23.1156 16.5594 23.1156 16.6344 23.1156V19.675C16.6344 19.4688 16.8125 19.3188 16.9906 19.3188C17.1875 19.3188 17.3469 19.4969 17.3469 19.675V24.0156C17.3469 24.1 17.3656 24.1844 17.375 24.25C17.3938 24.3344 17.4406 24.4375 17.4875 24.5125C17.5531 24.5969 17.6375 24.7 17.7406 24.7656C17.8063 24.8125 17.9281 24.85 18.0031 24.8781C18.05 24.8781 18.1156 24.8969 18.2188 24.8969C18.2656 24.8969 18.3313 24.8969 18.4062 24.8781V30.4656ZM19.1938 29.7531V17.6125C19.2219 17.4344 19.3719 17.3031 19.5406 17.3031C19.7375 17.3031 19.8969 17.4812 19.8969 17.6594C19.8969 17.6594 19.8781 20.8469 19.8781 20.9125C19.8781 21.4187 20.2812 21.8312 20.7969 21.8312C20.8438 21.8312 20.9094 21.8313 20.9656 21.8125C20.9656 21.8125 20.9656 21.8125 20.9844 21.8125C21.0312 21.7937 21.0969 21.7844 21.1531 21.7656C21.3125 21.7 21.4438 21.5969 21.5375 21.4844C21.5375 21.4844 21.6781 21.325 21.7156 20.9406C21.7156 20.9406 21.7062 15.1 21.7062 14.9875L27.7438 14.9781V29.7438L19.1938 29.7531ZM33.9688 26.5V34H12.4062V26.5H17.75V28.5625H15.9688V31.0938H30.6875V28.5625H29.1875V26.5H33.9688Z" fill="#FFC727"/>
</svg>
