<svg width="148" height="148" viewBox="0 0 148 148" fill="none" xmlns="http://www.w3.org/2000/svg">
<path d="M74.0001 56.6809C72.6958 56.6809 71.6385 57.7383 71.6385 59.0425V84.234C71.6385 88.141 74.817 91.3192 78.7237 91.3192C82.6304 91.3192 85.8089 88.141 85.8089 84.234V59.0425C85.8089 52.5311 80.5118 47.234 74.0004 47.234C67.489 47.234 62.1919 52.5311 62.1919 59.0425V84.234C62.1919 93.3499 69.6081 100.766 78.7237 100.766C87.8393 100.766 95.2554 93.3496 95.2554 84.234V68.4894C95.2554 67.1851 94.1983 66.1277 92.8938 66.1277C91.5893 66.1277 90.5322 67.1851 90.5322 68.4894V84.234C90.5322 90.7454 85.2351 96.0425 78.7237 96.0425C72.2122 96.0425 66.9152 90.7454 66.9152 84.234V59.0425C66.9152 55.1355 70.0934 51.9573 74.0004 51.9573C77.9071 51.9573 81.0856 55.1355 81.0856 59.0425V84.234C81.0856 85.5365 80.0262 86.5956 78.724 86.5956C77.4214 86.5956 76.3623 85.5362 76.3623 84.234V59.0425C76.3617 57.7383 75.3046 56.6809 74.0001 56.6809Z" fill="black" fill-opacity="0.4"/>
<path d="M74 37.7871C62.2797 37.7871 52.7447 47.3221 52.7447 59.0424V84.2339C52.7447 98.5587 64.3985 110.213 78.7233 110.213C93.0478 110.213 104.702 98.5587 104.702 84.2339V59.0424C104.702 42.1132 90.929 28.3402 73.9998 28.3402C57.0705 28.3402 43.2979 42.1132 43.2979 59.0438L43.3077 75.5779C43.3083 76.8819 44.3654 77.9384 45.6693 77.9384C46.9747 77.9378 48.0315 76.8799 48.031 75.5753L48.0211 59.0424C48.0211 44.7176 59.675 33.0638 73.9998 33.0638C88.3243 33.0638 99.9784 44.7176 99.9784 59.0424V84.2339C99.9784 95.9542 90.4434 105.489 78.723 105.489C67.0027 105.489 57.4677 95.9542 57.4677 84.2339V59.0424C57.4677 49.9265 64.8839 42.5106 73.9995 42.5106C83.1151 42.5106 90.5312 49.9268 90.5312 59.0424C90.5312 60.3467 91.5884 61.404 92.8929 61.404C94.1974 61.404 95.2545 60.3467 95.2545 59.0424C95.2554 47.3221 85.7204 37.7871 74 37.7871Z" fill="black" fill-opacity="0.4"/>
<path d="M26.7659 61.4044C28.0702 61.4044 29.1276 60.347 29.1276 59.0428C29.1276 34.2999 49.257 14.1704 73.9999 14.1704C98.7428 14.1704 118.872 34.2999 118.872 59.0428V71.0088C118.872 72.3113 117.813 73.3704 116.511 73.3704C115.208 73.3704 114.149 72.311 114.149 71.0088V59.0428C114.149 36.9046 96.1383 18.8937 73.9999 18.8937C51.8615 18.8937 33.8509 36.9043 33.8509 59.0428V84.2343C33.8509 108.977 53.9803 129.107 78.7232 129.107C103.466 129.107 123.596 108.977 123.596 84.2343C123.596 82.93 122.538 81.8726 121.234 81.8726C119.929 81.8726 118.872 82.93 118.872 84.2343C118.872 106.373 100.862 124.383 78.7232 124.383C56.5848 124.383 38.5741 106.373 38.5741 84.2343V59.0428C38.5741 39.5091 54.4659 23.6173 73.9996 23.6173C93.533 23.6173 109.425 39.5091 109.425 59.0428V71.0088C109.425 74.9158 112.604 78.094 116.51 78.094C120.417 78.094 123.596 74.9158 123.596 71.0088V59.0428C123.596 31.6954 101.347 9.44714 73.9999 9.44714C46.6529 9.44714 24.4043 31.6954 24.4043 59.0425C24.4043 60.3467 25.4617 61.4044 26.7659 61.4044Z" fill="black" fill-opacity="0.4"/>
<path d="M78.7232 133.83C51.3759 133.83 29.1276 111.581 29.1276 84.2342V68.4896C29.1276 67.1853 28.0702 66.1279 26.7659 66.1279C25.4617 66.1279 24.4043 67.1853 24.4043 68.4896V84.2342C24.4043 114.186 48.7717 138.553 78.7235 138.553C80.028 138.553 81.0851 137.496 81.0851 136.192C81.0851 134.887 80.028 133.83 78.7232 133.83Z" fill="black" fill-opacity="0.4"/>
<path d="M78.7233 119.659C98.257 119.659 114.149 103.768 114.149 84.234C114.149 82.9297 113.092 81.8723 111.787 81.8723C110.483 81.8723 109.425 82.9297 109.425 84.234C109.425 101.163 95.6525 114.936 78.7233 114.936C61.794 114.936 48.0214 101.163 48.0214 84.234C48.0214 82.9297 46.964 81.8723 45.6597 81.8723C44.3555 81.8723 43.2981 82.9297 43.2981 84.234C43.2978 103.768 59.1896 119.659 78.7233 119.659Z" fill="black" fill-opacity="0.4"/>
</svg>
