<svg width="46" height="44" viewBox="0 0 46 44" fill="none" xmlns="http://www.w3.org/2000/svg">
<ellipse cx="23" cy="22" rx="23" ry="22" fill="#07A53D"/>
<path d="M45.5 22C45.5 33.8534 35.4476 43.5 23 43.5C10.5524 43.5 0.5 33.8534 0.5 22C0.5 10.1466 10.5524 0.5 23 0.5C35.4476 0.5 45.5 10.1466 45.5 22Z" stroke="black" stroke-opacity="0.1"/>
<g clip-path="url(#clip0_29_241)">
<path d="M22 17H24V19H22V17ZM22 21H24V27H22V21ZM23 12C17.48 12 13 16.48 13 22C13 27.52 17.48 32 23 32C28.52 32 33 27.52 33 22C33 16.48 28.52 12 23 12ZM23 30C18.59 30 15 26.41 15 22C15 17.59 18.59 14 23 14C27.41 14 31 17.59 31 22C31 26.41 27.41 30 23 30Z" fill="#FFC727"/>
</g>
<defs>
<clipPath id="clip0_29_241">
<rect width="24" height="24" fill="white" transform="translate(11 10)"/>
</clipPath>
</defs>
</svg>
