<svg width="46" height="44" viewBox="0 0 46 44" fill="none" xmlns="http://www.w3.org/2000/svg">
<ellipse cx="23" cy="22" rx="23" ry="22" fill="#07A53D"/>
<path d="M45.5 22C45.5 33.8534 35.4476 43.5 23 43.5C10.5524 43.5 0.5 33.8534 0.5 22C0.5 10.1466 10.5524 0.5 23 0.5C35.4476 0.5 45.5 10.1466 45.5 22Z" stroke="black" stroke-opacity="0.1"/>
<g clip-path="url(#clip0_29_225)">
<path d="M29 19L27.59 17.58L21 24.17L18.41 21.59L17 23L21 27L29 19ZM30 13H25.82C25.4 11.84 24.3 11 23 11C21.7 11 20.6 11.84 20.18 13H16C15.86 13 15.73 13.01 15.6 13.04C15.21 13.12 14.86 13.32 14.59 13.59C14.41 13.77 14.26 13.99 14.16 14.23C14.06 14.46 14 14.72 14 15V29C14 29.27 14.06 29.54 14.16 29.78C14.26 30.02 14.41 30.23 14.59 30.42C14.86 30.69 15.21 30.89 15.6 30.97C15.73 30.99 15.86 31 16 31H30C31.1 31 32 30.1 32 29V15C32 13.9 31.1 13 30 13ZM23 12.75C23.41 12.75 23.75 13.09 23.75 13.5C23.75 13.91 23.41 14.25 23 14.25C22.59 14.25 22.25 13.91 22.25 13.5C22.25 13.09 22.59 12.75 23 12.75ZM30 29H16V15H30V29Z" fill="#FFC727"/>
</g>
<defs>
<clipPath id="clip0_29_225">
<rect width="24" height="24" fill="white" transform="translate(11 10)"/>
</clipPath>
</defs>
</svg>
