<svg width="46" height="44" viewBox="0 0 46 44" fill="none" xmlns="http://www.w3.org/2000/svg">
<ellipse cx="23" cy="22" rx="23" ry="22" fill="#07A53D"/>
<path d="M45.5 22C45.5 33.8534 35.4476 43.5 23 43.5C10.5524 43.5 0.5 33.8534 0.5 22C0.5 10.1466 10.5524 0.5 23 0.5C35.4476 0.5 45.5 10.1466 45.5 22Z" stroke="black" stroke-opacity="0.1"/>
<g clip-path="url(#clip0_29_202)">
<path d="M29 21H28.32L26.32 23H28.23L30 25H16L17.78 23H19.83L17.83 21H17L14 24V28C14 29.1 14.89 30 15.99 30H30C31.1 30 32 29.11 32 28V24L29 21ZM30 28H16V27H30V28ZM22.34 23.02C22.73 23.41 23.36 23.41 23.75 23.02L30.11 16.66C30.5 16.27 30.5 15.64 30.11 15.25L25.16 10.3C24.78 9.9 24.15 9.9 23.76 10.29L17.39 16.66C17 17.05 17 17.68 17.39 18.07L22.34 23.02ZM24.46 12.41L28 15.95L23.05 20.9L19.51 17.36L24.46 12.41Z" fill="#FFC727"/>
</g>
<defs>
<clipPath id="clip0_29_202">
<rect width="24" height="24" fill="white" transform="translate(11 8)"/>
</clipPath>
</defs>
</svg>
